<svg xmlns="http://www.w3.org/2000/svg" xmlns:xlink="http://www.w3.org/1999/xlink" width="100" zoomAndPan="magnify" viewBox="0 0 75 74.999997" height="100" preserveAspectRatio="xMidYMid meet" version="1.0"><defs><clipPath id="f77da02aa2"><path d="M 22 26.230469 L 53.429688 26.230469 L 53.429688 48.730469 L 22 48.730469 Z M 22 26.230469 " clip-rule="nonzero"/></clipPath></defs><g clip-path="url(#f77da02aa2)"><path fill="#ffffff" d="M 45.621094 43.445312 C 44.289062 43.707031 43.085938 43.953125 41.882812 44.175781 C 39.738281 44.570312 37.582031 44.878906 35.398438 44.933594 C 34.765625 44.949219 34.121094 44.78125 33.492188 44.835938 C 32.105469 44.953125 30.761719 44.675781 29.410156 44.496094 C 28.328125 44.351562 27.242188 44.0625 26.210938 43.6875 C 24.09375 42.917969 22.886719 41.347656 22.453125 39.164062 C 21.945312 36.601562 22.359375 34.195312 23.640625 31.925781 C 24.835938 29.804688 26.488281 28.066406 28.34375 26.503906 C 28.460938 26.402344 28.605469 26.328125 28.746094 26.257812 C 28.785156 26.238281 28.851562 26.269531 28.902344 26.277344 C 29.464844 27.34375 29.320312 28.429688 28.570312 29.34375 C 27.453125 30.707031 26.339844 32.078125 25.292969 33.492188 C 24.542969 34.5 23.980469 35.625 23.585938 36.824219 C 23.359375 37.496094 23.460938 38.054688 23.894531 38.613281 C 24.503906 39.394531 25.269531 39.957031 26.15625 40.375 C 27.386719 40.957031 28.695312 41.246094 30.042969 41.414062 C 32.25 41.683594 34.453125 41.570312 36.65625 41.359375 C 39.984375 41.039062 43.265625 40.429688 46.511719 39.648438 C 46.710938 39.601562 46.90625 39.515625 47.273438 39.386719 C 46.859375 39.257812 46.617188 39.171875 46.371094 39.101562 C 45.128906 38.75 43.878906 38.414062 42.640625 38.046875 C 41.507812 37.710938 41.410156 37.550781 41.511719 36.40625 C 41.640625 34.949219 41.796875 34.839844 43.234375 35.144531 C 45.210938 35.566406 47.179688 36.003906 49.164062 36.390625 C 50.273438 36.601562 51.402344 36.71875 52.523438 36.878906 C 52.78125 36.917969 53.035156 36.972656 53.335938 37.03125 C 53.328125 37.742188 53.390625 38.398438 53.289062 39.027344 C 53.125 40.019531 52.785156 40.90625 51.808594 41.507812 C 50.738281 42.164062 49.777344 42.988281 48.761719 43.738281 C 47.589844 44.605469 46.601562 45.65625 45.710938 46.792969 C 45.453125 47.121094 45.300781 47.53125 45.109375 47.90625 C 44.984375 48.152344 44.875 48.40625 44.722656 48.730469 C 44.289062 48.285156 44.253906 47.855469 44.28125 47.402344 C 44.335938 46.265625 44.648438 45.203125 45.214844 44.214844 C 45.335938 43.992188 45.449219 43.765625 45.621094 43.445312 Z M 40.128906 44.074219 C 40.378906 44.089844 40.640625 44.15625 40.882812 44.117188 C 42.03125 43.921875 43.175781 43.699219 44.328125 43.472656 C 44.726562 43.367188 45.128906 43.261719 45.527344 43.15625 C 45.511719 43.105469 45.492188 43.054688 45.472656 43.003906 C 45.085938 43.167969 44.703125 43.332031 44.316406 43.496094 C 44.089844 43.476562 43.855469 43.410156 43.636719 43.445312 C 42.460938 43.644531 41.289062 43.871094 40.113281 44.09375 C 39.636719 44.160156 39.160156 44.230469 38.683594 44.296875 C 38.699219 44.363281 38.714844 44.429688 38.734375 44.496094 C 39.199219 44.355469 39.664062 44.214844 40.128906 44.074219 Z M 36.257812 44.691406 C 36.261719 44.652344 36.265625 44.613281 36.269531 44.574219 C 36.152344 44.578125 36.035156 44.582031 35.917969 44.589844 C 35.917969 44.617188 35.917969 44.644531 35.917969 44.671875 C 36.03125 44.675781 36.144531 44.683594 36.257812 44.691406 Z M 36.257812 44.691406 " fill-opacity="1" fill-rule="nonzero"/></g></svg>