<svg xmlns="http://www.w3.org/2000/svg" xmlns:xlink="http://www.w3.org/1999/xlink" width="100" zoomAndPan="magnify" viewBox="0 0 75 74.999997" height="100" preserveAspectRatio="xMidYMid meet" version="1.0"><defs><g/><clipPath id="5e4bee7cf0"><path d="M 37.5 41.316406 L 67.5 41.316406 L 67.5 63.066406 L 37.5 63.066406 Z M 37.5 41.316406 " clip-rule="nonzero"/></clipPath></defs><g fill="#ffffff" fill-opacity="1"><g transform="translate(23.102856, 35.178288)"><g><path d="M 9.671875 -2.8125 C 9.671875 -2.25 9.523438 -1.753906 9.234375 -1.328125 C 8.953125 -0.910156 8.566406 -0.582031 8.078125 -0.34375 C 7.585938 -0.113281 7.050781 0 6.46875 0 L 1.296875 0 L 1.296875 -10.890625 L 6.71875 -10.890625 C 7.226562 -10.890625 7.671875 -10.753906 8.046875 -10.484375 C 8.421875 -10.210938 8.707031 -9.863281 8.90625 -9.4375 C 9.101562 -9.019531 9.203125 -8.578125 9.203125 -8.109375 C 9.203125 -7.578125 9.066406 -7.078125 8.796875 -6.609375 C 8.523438 -6.148438 8.140625 -5.804688 7.640625 -5.578125 C 8.265625 -5.398438 8.757812 -5.0625 9.125 -4.5625 C 9.488281 -4.070312 9.671875 -3.488281 9.671875 -2.8125 Z M 8.265625 -3.046875 C 8.265625 -3.390625 8.191406 -3.703125 8.046875 -3.984375 C 7.898438 -4.273438 7.703125 -4.503906 7.453125 -4.671875 C 7.203125 -4.847656 6.910156 -4.9375 6.578125 -4.9375 L 2.6875 -4.9375 L 2.6875 -1.203125 L 6.46875 -1.203125 C 6.8125 -1.203125 7.117188 -1.285156 7.390625 -1.453125 C 7.660156 -1.628906 7.875 -1.859375 8.03125 -2.140625 C 8.1875 -2.421875 8.265625 -2.722656 8.265625 -3.046875 Z M 2.6875 -9.703125 L 2.6875 -6.0625 L 6.15625 -6.0625 C 6.476562 -6.0625 6.765625 -6.140625 7.015625 -6.296875 C 7.265625 -6.460938 7.460938 -6.679688 7.609375 -6.953125 C 7.765625 -7.234375 7.84375 -7.539062 7.84375 -7.875 C 7.84375 -8.21875 7.769531 -8.523438 7.625 -8.796875 C 7.488281 -9.066406 7.300781 -9.285156 7.0625 -9.453125 C 6.820312 -9.617188 6.550781 -9.703125 6.25 -9.703125 Z M 2.6875 -9.703125 "/></g></g></g><g fill="#ffffff" fill-opacity="1"><g transform="translate(33.401625, 35.178288)"><g><path d="M 4.640625 0.15625 C 4.035156 0.15625 3.484375 0.046875 2.984375 -0.171875 C 2.484375 -0.390625 2.050781 -0.691406 1.6875 -1.078125 C 1.332031 -1.460938 1.050781 -1.90625 0.84375 -2.40625 C 0.644531 -2.90625 0.546875 -3.4375 0.546875 -4 C 0.546875 -4.757812 0.71875 -5.453125 1.0625 -6.078125 C 1.414062 -6.703125 1.898438 -7.203125 2.515625 -7.578125 C 3.140625 -7.953125 3.851562 -8.140625 4.65625 -8.140625 C 5.457031 -8.140625 6.15625 -7.945312 6.75 -7.5625 C 7.351562 -7.1875 7.820312 -6.6875 8.15625 -6.0625 C 8.488281 -5.445312 8.65625 -4.78125 8.65625 -4.0625 C 8.65625 -3.957031 8.648438 -3.859375 8.640625 -3.765625 C 8.640625 -3.671875 8.632812 -3.597656 8.625 -3.546875 L 1.984375 -3.546875 C 2.023438 -3.023438 2.171875 -2.5625 2.421875 -2.15625 C 2.671875 -1.75 2.992188 -1.429688 3.390625 -1.203125 C 3.785156 -0.972656 4.21875 -0.859375 4.6875 -0.859375 C 5.175781 -0.859375 5.632812 -0.976562 6.0625 -1.21875 C 6.5 -1.46875 6.800781 -1.789062 6.96875 -2.1875 L 8.125 -1.875 C 7.957031 -1.476562 7.703125 -1.128906 7.359375 -0.828125 C 7.015625 -0.523438 6.609375 -0.285156 6.140625 -0.109375 C 5.679688 0.0664062 5.179688 0.15625 4.640625 0.15625 Z M 1.9375 -4.484375 L 7.390625 -4.484375 C 7.347656 -5.003906 7.195312 -5.460938 6.9375 -5.859375 C 6.6875 -6.253906 6.363281 -6.566406 5.96875 -6.796875 C 5.570312 -7.023438 5.132812 -7.140625 4.65625 -7.140625 C 4.175781 -7.140625 3.738281 -7.023438 3.34375 -6.796875 C 2.945312 -6.566406 2.625 -6.253906 2.375 -5.859375 C 2.125 -5.460938 1.976562 -5.003906 1.9375 -4.484375 Z M 1.9375 -4.484375 "/></g></g></g><g fill="#ffffff" fill-opacity="1"><g transform="translate(42.472522, 35.178288)"><g><path d="M 4.28125 0.09375 C 3.738281 0.09375 3.238281 -0.015625 2.78125 -0.234375 C 2.332031 -0.453125 1.941406 -0.753906 1.609375 -1.140625 C 1.285156 -1.523438 1.03125 -1.960938 0.84375 -2.453125 C 0.664062 -2.941406 0.578125 -3.453125 0.578125 -3.984375 C 0.578125 -4.546875 0.664062 -5.078125 0.84375 -5.578125 C 1.03125 -6.085938 1.289062 -6.53125 1.625 -6.90625 C 1.957031 -7.289062 2.347656 -7.59375 2.796875 -7.8125 C 3.242188 -8.03125 3.742188 -8.140625 4.296875 -8.140625 C 4.960938 -8.140625 5.539062 -7.976562 6.03125 -7.65625 C 6.53125 -7.332031 6.945312 -6.914062 7.28125 -6.40625 L 7.28125 -8.015625 L 8.484375 -8.015625 L 8.484375 -0.09375 C 8.484375 0.664062 8.300781 1.304688 7.9375 1.828125 C 7.570312 2.347656 7.082031 2.742188 6.46875 3.015625 C 5.851562 3.285156 5.164062 3.421875 4.40625 3.421875 C 3.5 3.421875 2.757812 3.257812 2.1875 2.9375 C 1.613281 2.625 1.140625 2.195312 0.765625 1.65625 L 1.546875 0.96875 C 1.867188 1.4375 2.28125 1.785156 2.78125 2.015625 C 3.289062 2.253906 3.832031 2.375 4.40625 2.375 C 4.894531 2.375 5.347656 2.285156 5.765625 2.109375 C 6.179688 1.929688 6.515625 1.65625 6.765625 1.28125 C 7.015625 0.914062 7.140625 0.457031 7.140625 -0.09375 L 7.140625 -1.5 C 6.835938 -1.007812 6.425781 -0.617188 5.90625 -0.328125 C 5.394531 -0.046875 4.851562 0.09375 4.28125 0.09375 Z M 4.6875 -1.015625 C 4.976562 -1.015625 5.253906 -1.0625 5.515625 -1.15625 C 5.785156 -1.257812 6.03125 -1.394531 6.25 -1.5625 C 6.476562 -1.738281 6.671875 -1.929688 6.828125 -2.140625 C 6.984375 -2.359375 7.085938 -2.582031 7.140625 -2.8125 L 7.140625 -5.109375 C 6.992188 -5.472656 6.785156 -5.796875 6.515625 -6.078125 C 6.253906 -6.359375 5.953125 -6.578125 5.609375 -6.734375 C 5.273438 -6.898438 4.929688 -6.984375 4.578125 -6.984375 C 4.160156 -6.984375 3.789062 -6.894531 3.46875 -6.71875 C 3.144531 -6.539062 2.867188 -6.304688 2.640625 -6.015625 C 2.421875 -5.722656 2.25 -5.398438 2.125 -5.046875 C 2.007812 -4.691406 1.953125 -4.328125 1.953125 -3.953125 C 1.953125 -3.554688 2.019531 -3.179688 2.15625 -2.828125 C 2.300781 -2.472656 2.492188 -2.15625 2.734375 -1.875 C 2.984375 -1.601562 3.273438 -1.390625 3.609375 -1.234375 C 3.953125 -1.085938 4.3125 -1.015625 4.6875 -1.015625 Z M 4.6875 -1.015625 "/></g></g></g><g fill="#ffffff" fill-opacity="1"><g transform="translate(52.049911, 35.178288)"><g><path d="M 1.09375 0 L 1.09375 -8.015625 L 2.4375 -8.015625 L 2.4375 0 Z M 1.09375 -9.515625 L 1.09375 -11.203125 L 2.4375 -11.203125 L 2.4375 -9.515625 Z M 1.09375 -9.515625 "/></g></g></g><g fill="#ffffff" fill-opacity="1"><g transform="translate(55.580043, 35.178288)"><g><path d="M 8.046875 0 L 6.6875 0 L 6.6875 -4.484375 C 6.6875 -5.328125 6.554688 -5.945312 6.296875 -6.34375 C 6.035156 -6.738281 5.640625 -6.9375 5.109375 -6.9375 C 4.742188 -6.9375 4.378906 -6.84375 4.015625 -6.65625 C 3.648438 -6.476562 3.328125 -6.234375 3.046875 -5.921875 C 2.765625 -5.609375 2.5625 -5.242188 2.4375 -4.828125 L 2.4375 0 L 1.09375 0 L 1.09375 -8.015625 L 2.3125 -8.015625 L 2.3125 -6.296875 C 2.53125 -6.671875 2.804688 -6.992188 3.140625 -7.265625 C 3.484375 -7.546875 3.867188 -7.757812 4.296875 -7.90625 C 4.722656 -8.0625 5.171875 -8.140625 5.640625 -8.140625 C 6.109375 -8.140625 6.492188 -8.054688 6.796875 -7.890625 C 7.109375 -7.722656 7.351562 -7.488281 7.53125 -7.1875 C 7.71875 -6.882812 7.847656 -6.53125 7.921875 -6.125 C 8.003906 -5.71875 8.046875 -5.269531 8.046875 -4.78125 Z M 8.046875 0 "/></g></g></g><g clip-path="url(#5e4bee7cf0)"><path fill="#3b600c" d="M 60.058594 57.917969 C 58.789062 58.167969 57.648438 58.40625 56.5 58.621094 C 54.460938 59.003906 52.40625 59.300781 50.328125 59.351562 C 49.722656 59.367188 49.109375 59.207031 48.511719 59.257812 C 47.195312 59.371094 45.914062 59.105469 44.628906 58.933594 C 43.597656 58.792969 42.5625 58.515625 41.582031 58.152344 C 39.566406 57.410156 38.417969 55.894531 38.003906 53.789062 C 37.523438 51.320312 37.914062 48.996094 39.136719 46.808594 C 40.273438 44.761719 41.847656 43.085938 43.609375 41.574219 C 43.722656 41.480469 43.863281 41.410156 43.996094 41.339844 C 44.03125 41.320312 44.09375 41.351562 44.144531 41.359375 C 44.679688 42.386719 44.539062 43.433594 43.828125 44.320312 C 42.765625 45.632812 41.703125 46.953125 40.707031 48.316406 C 39.996094 49.289062 39.457031 50.375 39.082031 51.53125 C 38.867188 52.179688 38.964844 52.71875 39.375 53.257812 C 39.957031 54.011719 40.6875 54.550781 41.53125 54.957031 C 42.699219 55.519531 43.949219 55.796875 45.226562 55.957031 C 47.328125 56.21875 49.425781 56.109375 51.523438 55.90625 C 54.695312 55.597656 57.816406 55.011719 60.90625 54.257812 C 61.097656 54.210938 61.28125 54.128906 61.632812 54.003906 C 61.238281 53.878906 61.007812 53.796875 60.773438 53.730469 C 59.589844 53.390625 58.402344 53.066406 57.222656 52.710938 C 56.144531 52.386719 56.050781 52.234375 56.148438 51.128906 C 56.269531 49.722656 56.417969 49.617188 57.785156 49.910156 C 59.667969 50.316406 61.542969 50.742188 63.433594 51.113281 C 64.488281 51.320312 65.5625 51.429688 66.628906 51.585938 C 66.875 51.621094 67.117188 51.675781 67.40625 51.730469 C 67.394531 52.417969 67.457031 53.050781 67.359375 53.660156 C 67.203125 54.617188 66.878906 55.472656 65.949219 56.046875 C 64.933594 56.683594 64.015625 57.480469 63.050781 58.203125 C 61.933594 59.035156 60.992188 60.050781 60.144531 61.148438 C 59.902344 61.464844 59.757812 61.859375 59.574219 62.222656 C 59.453125 62.460938 59.347656 62.703125 59.207031 63.019531 C 58.792969 62.585938 58.757812 62.171875 58.78125 61.734375 C 58.839844 60.640625 59.132812 59.613281 59.671875 58.660156 C 59.789062 58.445312 59.894531 58.226562 60.058594 57.917969 Z M 54.828125 58.523438 C 55.070312 58.542969 55.316406 58.605469 55.546875 58.566406 C 56.640625 58.378906 57.734375 58.160156 58.828125 57.945312 C 59.210938 57.84375 59.589844 57.742188 59.972656 57.640625 C 59.953125 57.589844 59.9375 57.539062 59.917969 57.492188 C 59.550781 57.652344 59.183594 57.808594 58.816406 57.96875 C 58.601562 57.949219 58.378906 57.886719 58.171875 57.921875 C 57.050781 58.113281 55.9375 58.332031 54.816406 58.546875 C 54.363281 58.609375 53.910156 58.675781 53.457031 58.738281 C 53.472656 58.804688 53.488281 58.867188 53.503906 58.929688 C 53.945312 58.796875 54.386719 58.660156 54.828125 58.523438 Z M 51.148438 59.121094 C 51.152344 59.085938 51.15625 59.042969 51.15625 59.007812 C 51.046875 59.011719 50.933594 59.015625 50.824219 59.019531 C 50.824219 59.046875 50.824219 59.074219 50.824219 59.101562 C 50.929688 59.109375 51.039062 59.113281 51.148438 59.121094 Z M 51.148438 59.121094 " fill-opacity="1" fill-rule="nonzero"/></g></svg>