<svg xmlns="http://www.w3.org/2000/svg" xmlns:xlink="http://www.w3.org/1999/xlink" width="48" zoomAndPan="magnify" viewBox="0 0 36 36.000001" height="48" preserveAspectRatio="xMidYMid meet" version="1.0"><defs><g/><clipPath id="e329feac60"><path d="M 2.4375 1.949219 L 33.554688 1.949219 L 33.554688 33.066406 L 2.4375 33.066406 Z M 2.4375 1.949219 " clip-rule="nonzero"/></clipPath><clipPath id="169117b808"><path d="M 17.996094 1.949219 C 9.402344 1.949219 2.4375 8.917969 2.4375 17.507812 C 2.4375 26.101562 9.402344 33.066406 17.996094 33.066406 C 26.589844 33.066406 33.554688 26.101562 33.554688 17.507812 C 33.554688 8.917969 26.589844 1.949219 17.996094 1.949219 Z M 17.996094 1.949219 " clip-rule="nonzero"/></clipPath></defs><g clip-path="url(#e329feac60)"><g clip-path="url(#169117b808)"><path stroke-linecap="butt" transform="matrix(0.72973, 0, 0, 0.72973, 2.4376, 1.951116)" fill="none" stroke-linejoin="miter" d="M 21.320899 -0.00260039 C 9.544278 -0.00260039 -0.000137561 9.547168 -0.000137561 21.318436 C -0.000137561 33.095056 9.544278 42.639472 21.320899 42.639472 C 33.097519 42.639472 42.641935 33.095056 42.641935 21.318436 C 42.641935 9.547168 33.097519 -0.00260039 21.320899 -0.00260039 Z M 21.320899 -0.00260039 " stroke="#2c6248" stroke-width="4" stroke-opacity="1" stroke-miterlimit="4"/></g></g><g fill="#2c6248" fill-opacity="1"><g transform="translate(9.866403, 25.461013)"><g><path d="M 15.265625 -1.84375 C 14.773438 -1.28125 14.09375 -0.753906 13.21875 -0.265625 C 12.351562 0.210938 11.367188 0.597656 10.265625 0.890625 C 9.160156 1.179688 8.015625 1.328125 6.828125 1.328125 C 5.847656 1.328125 4.929688 1.195312 4.078125 0.9375 C 3.222656 0.6875 2.53125 0.253906 2 -0.359375 C 1.769531 -0.628906 1.585938 -0.957031 1.453125 -1.34375 C 1.328125 -1.726562 1.265625 -2.160156 1.265625 -2.640625 C 1.265625 -3.066406 1.316406 -3.476562 1.421875 -3.875 C 1.628906 -4.582031 2.007812 -5.222656 2.5625 -5.796875 C 3.113281 -6.378906 3.753906 -6.882812 4.484375 -7.3125 C 5.222656 -7.738281 5.96875 -8.085938 6.71875 -8.359375 C 7.476562 -8.628906 8.160156 -8.816406 8.765625 -8.921875 C 8.316406 -9.003906 7.859375 -9.09375 7.390625 -9.1875 C 6.921875 -9.289062 6.492188 -9.445312 6.109375 -9.65625 C 5.734375 -9.863281 5.4375 -10.15625 5.21875 -10.53125 C 3.832031 -10.582031 2.703125 -10.773438 1.828125 -11.109375 C 0.953125 -11.441406 0.316406 -11.847656 -0.078125 -12.328125 C -0.472656 -12.804688 -0.671875 -13.285156 -0.671875 -13.765625 C -0.671875 -14.304688 -0.445312 -14.769531 0 -15.15625 C 0.445312 -15.539062 1.054688 -15.734375 1.828125 -15.734375 C 2.285156 -15.734375 2.765625 -15.625 3.265625 -15.40625 C 3.765625 -15.195312 4.15625 -14.957031 4.4375 -14.6875 C 4.625 -14.5 4.71875 -14.359375 4.71875 -14.265625 C 4.71875 -14.179688 4.664062 -14.140625 4.5625 -14.140625 C 4.46875 -14.140625 4.378906 -14.164062 4.296875 -14.21875 C 3.898438 -14.457031 3.5 -14.625 3.09375 -14.71875 C 2.6875 -14.820312 2.289062 -14.875 1.90625 -14.875 C 1.40625 -14.875 1.007812 -14.742188 0.71875 -14.484375 C 0.425781 -14.222656 0.28125 -13.910156 0.28125 -13.546875 C 0.28125 -13.210938 0.4375 -12.859375 0.75 -12.484375 C 1.070312 -12.117188 1.582031 -11.800781 2.28125 -11.53125 C 2.976562 -11.257812 3.894531 -11.085938 5.03125 -11.015625 C 4.945312 -11.296875 4.90625 -11.578125 4.90625 -11.859375 C 4.90625 -12.703125 5.101562 -13.425781 5.5 -14.03125 C 5.894531 -14.644531 6.410156 -15.15625 7.046875 -15.5625 C 7.691406 -15.976562 8.390625 -16.285156 9.140625 -16.484375 C 9.898438 -16.679688 10.644531 -16.78125 11.375 -16.78125 C 12.539062 -16.78125 13.457031 -16.539062 14.125 -16.0625 C 14.800781 -15.59375 15.140625 -15.035156 15.140625 -14.390625 C 15.140625 -13.816406 14.835938 -13.238281 14.234375 -12.65625 C 13.640625 -12.082031 12.6875 -11.597656 11.375 -11.203125 C 10.0625 -10.804688 8.332031 -10.582031 6.1875 -10.53125 C 6.476562 -10.207031 6.90625 -9.9375 7.46875 -9.71875 C 8.039062 -9.507812 8.769531 -9.40625 9.65625 -9.40625 C 10.019531 -9.40625 10.414062 -9.421875 10.84375 -9.453125 C 11.269531 -9.492188 11.726562 -9.5625 12.21875 -9.65625 L 12.3125 -9.65625 C 12.550781 -9.675781 12.71875 -9.640625 12.8125 -9.546875 C 12.90625 -9.453125 12.953125 -9.335938 12.953125 -9.203125 C 12.953125 -8.953125 12.835938 -8.679688 12.609375 -8.390625 C 12.378906 -8.109375 12.179688 -7.96875 12.015625 -7.96875 L 11.65625 -7.96875 C 10.863281 -7.96875 10.007812 -7.894531 9.09375 -7.75 C 8.1875 -7.613281 7.296875 -7.378906 6.421875 -7.046875 C 5.554688 -6.710938 4.773438 -6.269531 4.078125 -5.71875 C 3.378906 -5.164062 2.859375 -4.46875 2.515625 -3.625 C 2.304688 -3.125 2.203125 -2.675781 2.203125 -2.28125 C 2.203125 -1.738281 2.378906 -1.316406 2.734375 -1.015625 C 3.097656 -0.710938 3.5625 -0.5 4.125 -0.375 C 4.695312 -0.25 5.300781 -0.1875 5.9375 -0.1875 C 6.582031 -0.1875 7.21875 -0.226562 7.84375 -0.3125 C 8.46875 -0.40625 8.992188 -0.503906 9.421875 -0.609375 C 10.554688 -0.898438 11.59375 -1.3125 12.53125 -1.84375 C 13.46875 -2.375 14.140625 -2.882812 14.546875 -3.375 C 14.910156 -3.800781 15.09375 -4.195312 15.09375 -4.5625 C 15.09375 -4.9375 14.910156 -5.226562 14.546875 -5.4375 C 14.179688 -5.65625 13.71875 -5.765625 13.15625 -5.765625 C 12.40625 -5.765625 11.554688 -5.554688 10.609375 -5.140625 C 9.660156 -4.722656 8.773438 -4.035156 7.953125 -3.078125 C 7.804688 -2.910156 7.6875 -2.828125 7.59375 -2.828125 C 7.507812 -2.828125 7.46875 -2.875 7.46875 -2.96875 C 7.46875 -3.0625 7.507812 -3.179688 7.59375 -3.328125 C 7.675781 -3.484375 7.800781 -3.664062 7.96875 -3.875 C 8.457031 -4.425781 9.039062 -4.898438 9.71875 -5.296875 C 10.394531 -5.691406 11.085938 -6 11.796875 -6.21875 C 12.503906 -6.4375 13.148438 -6.546875 13.734375 -6.546875 L 13.796875 -6.546875 C 14.578125 -6.546875 15.175781 -6.320312 15.59375 -5.875 C 16.019531 -5.425781 16.234375 -4.882812 16.234375 -4.25 C 16.234375 -3.851562 16.15625 -3.445312 16 -3.03125 C 15.84375 -2.625 15.597656 -2.226562 15.265625 -1.84375 Z M 5.9375 -10.984375 L 6 -10.984375 C 7.820312 -10.984375 9.273438 -11.125 10.359375 -11.40625 C 11.441406 -11.695312 12.222656 -12.054688 12.703125 -12.484375 C 13.191406 -12.910156 13.4375 -13.335938 13.4375 -13.765625 C 13.4375 -14.222656 13.195312 -14.617188 12.71875 -14.953125 C 12.25 -15.296875 11.625 -15.46875 10.84375 -15.46875 C 10.3125 -15.46875 9.75 -15.382812 9.15625 -15.21875 C 8.570312 -15.050781 8.019531 -14.804688 7.5 -14.484375 C 6.988281 -14.160156 6.570312 -13.769531 6.25 -13.3125 C 5.925781 -12.851562 5.765625 -12.332031 5.765625 -11.75 C 5.765625 -11.46875 5.820312 -11.210938 5.9375 -10.984375 Z M 5.9375 -10.984375 "/></g></g></g></svg>